<?xml version="1.0" encoding="utf-8"?>
<!-- Generator: Adobe Illustrator 21.1.0, SVG Export Plug-In . SVG Version: 6.00 Build 0)  -->
<svg version="1.1" id="Layer_1" xmlns="http://www.w3.org/2000/svg" xmlns:xlink="http://www.w3.org/1999/xlink" x="0px" y="0px"
	 viewBox="0 0 251.4 251.4" style="enable-background:new 0 0 251.4 251.4;" xml:space="preserve">
<style type="text/css">
	.st0{fill:#00995D;}
	.st1{fill:#867A5C;}
	.st2{fill:#FEC88C;}
	.st3{fill:#EBA368;}
	.st4{fill:#73BF4A;}
	.st5{fill:#4F8E40;}
	.st6{fill:#71B444;}
	.st7{fill:url(#SVGID_1_);}
	.st8{fill:#CAC5B8;}
	.st9{fill:#746745;}
	.st10{fill:#61F4FB;}
	.st11{opacity:0.7;fill:#61F4FB;}
	.st12{fill:#B1B5BB;}
	.st13{fill:#02B2A9;}
	.st14{opacity:0.68;fill:#C3DFE2;}
	.st15{opacity:0.57;}
	.st16{fill:#59C8C2;}
	.st17{fill:#D8FFFF;}
	.st18{fill:#4D5763;}
	.st19{fill:#76C936;}
	.st20{fill:#51A100;}
	.st21{fill:#CCEFA7;}
	.st22{opacity:0.73;fill:#D8FFFF;}
	.st23{opacity:0.52;fill:#D8FFFF;}
	.st24{fill:#76D347;}
	.st25{fill:url(#SVGID_2_);}
	.st26{fill:url(#SVGID_3_);}
	.st27{fill:#FFF0C7;}
	.st28{fill:none;stroke:#C6B793;stroke-width:2;stroke-miterlimit:10;}
	.st29{fill:#FFCB08;}
	.st30{fill:#AEE1F9;}
	.st31{opacity:0.7;}
	.st32{opacity:0.7;fill:#C5E9F9;}
</style>
<g>
	<circle class="st0" cx="125.7" cy="125.7" r="125.7"/>
	<path class="st1" d="M200.5,201.9l-31.1-18.8H29.6c-3,0-4.4,3.9-1.9,5.7l20.2,15.6c3.9,3,8.6,4.6,13.5,4.6h108h29.1
		C202.5,209,203.9,203.9,200.5,201.9z"/>
	<path class="st2" d="M148.4,40.1c-6.1-0.7-9.4,1.9-12.4,7.2l-10.7,16.5c-2.2,1.6-5,5.5-7.5,9.7c-5.6,7.3-13.5,18.2-15.1,25
		c0,0.2-0.1,0.4-0.1,0.6c-0.4,1-0.8,2-1.2,3c-2.5,6.5-7.2,20.7-3.1,22.5c3.9,1.8,6-11.7,9-18.3c0.7,0.5,1.5,1,2.4,1.5
		c0,0.5,0,1.1-0.1,1.6l-1.1,1.9c0,0-3.1,6.4-3.9,10.5c-1,4.9-0.9,12.8,3.1,9.5c1.7-1.4,3.7-7.9,3.7-7.9l1.5-3.9
		c1.8-0.3,3.2-3.9,4.1-8.2c0-0.1,0.1-0.2,0.1-0.2c0.4,0.2,0.9,0.3,1.3,0.5l-1,2.1l-3.2,8.7c0,0-2.9,12.2-0.5,13.1
		c4,1.5,3.9-5.5,5.4-9.1c0.9-2.2,3.8-9,3.8-9s1.3-1.6,2.8-3.6c1.7,0.5,3.3,0.9,4.6,1.2c-3.4,5.4-7.2,11.2-7.5,11.6
		c-2,3-5.2,8.5-1,8.6c4.2,0.1,7.5-5.8,7.9-7.1c0.3-1.3,8.6-13.3,8.6-13.3s0.2-0.4,0.6-1.1c2.5-1.7,5.4-4.8,7.4-10.3
		c4.1-11.3,7.4-24.9,7.4-24.9l6.4-18.5C165.2,50.6,159,41.4,148.4,40.1z"/>
	<path class="st3" d="M130.7,143.6l11.7,6.3l31.2,0.7l11.9-13.2l-18.2,4.8l-19,0.3C148.2,142.5,129.8,136.6,130.7,143.6z"/>
	<path class="st3" d="M137,134l9.1,8.6l17.7,2.1l21.7-7.3l4.6-15.4c0,0-11.1,7.8-12.4,8.6c-1.2,0.8-15.2,5.8-15.2,5.8l-15.2-0.4
		c0,0-8.6-9.9-11.1-7C133.7,131.9,137,134,137,134z"/>
	<g id="lettuce_3_">
		<path class="st4" d="M171.8,89.7c-0.9-1.6-2.1-2.6-3.8-3c-0.4-0.1-0.8,0-1.1,0.2c-0.7-0.1-5.9-10.5-6.5-10.1
			c-1.6-1.8-3.9-2.8-6.4-2.2c-0.8,0.2-1.5,0.5-2.1,0.9c1.6,2,3,3.8,3.3,3.8c0.2-0.3,0.6-0.4,1-0.4c1.8,0.2,3.1,1,4.2,2.5
			c0.5,0.6,0.2,1.4-0.4,1.8c0.5,0.5,1,1.1,1.4,1.8c0.4,0.6,0.2,1.3-0.3,1.7c-0.1,0.1-0.2,0.2-0.4,0.3c0.8,1,1.2,2.2,1,3.2
			c0,0,0,0.1,0,0.1c1,0.5,1.8,1.4,1.8,2.7c0,0.5-0.1,0.9-0.3,1.2c0.9,0.6,1.6,1.5,1.6,2.7c0,0.5,0,0.9-0.2,1.4
			c1.2,0.6,2.1,1.7,1.9,3.3c0,0.4-0.2,0.7-0.3,1c0.2,0.2,0.3,0.4,0.4,0.7c0.3,0.6,0.5,1.3,0.4,2.1c0,0.4-0.1,0.8-0.3,1.1
			c0,0.1-0.1,0.2-0.1,0.2c0,0.2,0.1,0.4,0.1,0.5c0.7,0.2,1.3,0.9,0.9,1.7c0,0-0.1,0.1-0.1,0.1c0.3,0.4,0.3,1.1,0,1.6
			c0.5,0.4,0.8,0.9,1.1,1.4c0.8,0.9,1.3,2,1.2,3.2c-0.1,1-0.3,2.1-0.6,3.1c0,0.3-0.1,0.5-0.2,0.8c-0.1,0.5-0.3,0.9-0.4,1.4
			c0.3,1.2,0.9,2.2,1.5,3.6c1.3,2.8,1.9,5.9,1.5,9c0,0.3-0.1,0.6-0.1,0.9c0.1,0.7,0,1.5-0.5,2.1c0,0.1-0.1,0.2-0.1,0.3
			c0,0.2,0,0.4,0,0.6c0,0.1,0,0.1,0,0.2c0.2,0.1,0.3,0.2,0.5,0.3c1.2-3.1,2.2-7,2.7-11.7c1-0.9,1.7-2.1,1.6-3.6
			c-0.1-1.1-0.6-2-1.3-2.7c0-0.2,0-0.5,0-0.7c0.2-0.2,0.4-0.5,0.6-0.7c0.5-0.7,0.1-1.6-0.6-1.8c0-0.2,0-0.4,0-0.5
			c0-0.1,0.1-0.1,0.2-0.2c0.2-0.3,0.4-0.7,0.5-1.1c0.2-0.7,0.1-1.4-0.1-2.1c-0.1-0.3-0.2-0.5-0.3-0.7c0.2-0.3,0.4-0.6,0.5-0.9
			c0.4-1.6-0.3-2.8-1.4-3.5c0.2-0.4,0.4-0.8,0.4-1.3c0.1-1.2-0.4-2.1-1.2-2.9c0.2-0.3,0.4-0.7,0.5-1.2c0.2-1.3-0.4-2.2-1.4-2.9
			c0,0,0-0.1,0-0.1c0.4-1,0.1-2.2-0.5-3.3c0.1-0.1,0.3-0.1,0.4-0.2c0.6-0.4,0.9-1,0.6-1.7c-0.3-0.7-0.7-1.4-1.1-2
			C171.8,91.1,172.2,90.4,171.8,89.7z"/>
		<path class="st5" d="M112.7,89.2c-0.2-0.2-0.2,0-0.1,0.4c0.2-0.2,0.3-0.3,0.5-0.4C112.9,89.2,112.8,89.2,112.7,89.2z"/>
		<path class="st5" d="M114.7,88.9c1.1-2.4,3.2-4.2,6-3.3c0,0,0,0,0.1,0c0.8,0.1,1.5-0.1,2.2-0.6c0,0,0.1,0,0.1-0.1c0,0,0,0,0,0
			c0.1-0.3,0.2-0.6,0.3-0.8c0-0.1,0-0.1-0.1-0.2c0.2-0.8,0.1-1.5,0.4-2.2c0.5-1.3,1.4-2.5,2.6-3.3c2.1-1.4,4.6-1.4,6.8-0.3
			c0.3-0.6,9.1,7.1,9.8,7c0.2-0.3,0.5-0.5,0.9-0.6c1.8-0.2,3.3,0.3,4.7,1.4c0.6,0.5,0.5,1.3,0,1.8c0.6,0.4,1.2,0.9,1.8,1.4
			c0.5,0.5,0.5,1.2,0.1,1.8c-0.1,0.1-0.2,0.3-0.3,0.4c0.5,0.4,0.9,0.9,1.3,1.4c0.9-0.8,1.9-1.5,3-2c1-0.4,2.2,0,2.4,1.1
			c0.3,1.1,0.7,2.1,1.2,3c0.1,0,0.1,0.1,0.2,0.1c0.9,0.6,1.5,1.5,1.6,2.5c0.9,0.6,1.9,1.6,2.5,2.7c0.7,0,1.3,0.3,1.9,0.8
			c1.5,1.4,1.1,3.3,0.4,4.9c0,0,0,0.1,0,0.1c0.8,0.5,1.4,1.2,1.8,2.1c0.1,0.1,0.1,0.3,0.1,0.4c0.4,0,0.7,0.2,0.9,0.4
			c0,0,0.1-0.1,0.1-0.1c0.4-0.8-0.2-1.6-0.9-1.7c0-0.2-0.1-0.4-0.1-0.5c0-0.1,0.1-0.1,0.1-0.2c0.2-0.3,0.3-0.8,0.3-1.1
			c0.1-0.7-0.1-1.4-0.4-2.1c-0.1-0.2-0.3-0.5-0.4-0.7c0.2-0.3,0.3-0.6,0.3-1c0.2-1.6-0.7-2.7-1.9-3.3c0.2-0.4,0.2-0.9,0.2-1.4
			c-0.1-1.2-0.7-2-1.6-2.7c0.2-0.4,0.3-0.8,0.3-1.2c0-1.3-0.8-2.1-1.8-2.7c0,0,0-0.1,0-0.1c0.2-1-0.2-2.2-1-3.2
			c0.1-0.1,0.2-0.2,0.4-0.3c0.5-0.5,0.7-1.1,0.3-1.7c-0.4-0.7-0.9-1.3-1.4-1.8c0.6-0.4,0.9-1.1,0.4-1.8c-1.1-1.4-2.4-2.3-4.2-2.5
			c-0.4-0.1-0.8,0.1-1,0.4c-0.3,0-1.7-1.8-3.3-3.8c-2-2.6-4.3-5.5-4.5-5.3c-1.9-1.5-4.3-2.2-6.7-1.3c-1.3,0.5-2.5,1.4-3.3,2.6
			c-0.4,0.7-0.5,1.4-0.9,2.1c0,0.1,0,0.1,0,0.2c-0.2,0.2-0.4,0.5-0.5,0.7c0,0,0,0,0,0c0,0-0.1,0-0.1,0c-0.8,0.2-1.5,0.2-2.3,0
			c0,0,0,0-0.1,0c-2.6-1.6-5-0.3-6.6,1.8c0,0-0.1,0-0.1,0c-2.7-1-4.7,2.8-4.8,5.1c0,0.2,0,0.3,0,0.5c-0.3,0.2-0.6,0.4-0.8,0.6
			c-2.3-0.9-5.2-0.1-6.4,2.8c-0.2,0.4-0.1,0.9,0.1,1.3c-0.4,0.7-0.7,1.6-0.8,2.4c0.1,0,0.3,0,0.5,0
			C114.6,88.9,114.6,88.9,114.7,88.9z"/>
		<path class="st5" d="M167.9,111c0.3,0.3,0.5,0.6,0.8,0.8c-0.3-0.6-0.6-1-1.1-1.4c-0.1,0.1-0.1,0.2-0.2,0.3
			C167.5,110.7,167.7,110.8,167.9,111z"/>
		<path class="st6" d="M115.1,93.9C115.1,93.9,115.1,93.9,115.1,93.9c0.8,0.1,1.5-0.1,2.1-0.5c0,0,0.1,0,0.1-0.1c0,0,0,0,0,0
			c0-0.3,0.1-0.5,0.2-0.8c0,0,0-0.1-0.1-0.1c0.1-0.7-0.1-1.3,0-2c0.3-1.2,0.9-2.3,1.9-3c1.8-1.3,4.2-1.2,6.3-0.2
			c0.2-0.5,9.5,6.6,10.1,6.4c0.1-0.3,0.4-0.5,0.8-0.5c1.6-0.2,3.1,0.3,4.6,1.3c0.7,0.5,0.6,1.2,0.2,1.7c0.7,0.4,1.3,0.8,1.9,1.3
			c0.6,0.5,0.6,1.1,0.3,1.6c-0.1,0.1-0.1,0.2-0.2,0.3c1,0.7,1.9,1.7,2,2.6c0,0,0,0.1,0.1,0.1c0.5,0.1,0.9,0.3,1.3,0.6
			c0,0,0.1,0,0.1,0c0-0.1,0.1-0.3,0.1-0.4c0.1-0.2,0.2-0.5,0.4-0.6c-0.5-1-0.5-2.3,0-3.3c-0.2-0.5-0.4-0.9-0.3-1.5
			c0.1-1.3,1.1-2.4,2.3-2.9c0.4-0.2,0.9-0.3,1.4-0.4c0.2-0.3,0.4-0.5,0.7-0.7c-0.3-0.5-0.7-1-1.3-1.4c0.1-0.1,0.2-0.2,0.3-0.4
			c0.4-0.6,0.4-1.2-0.1-1.8c-0.6-0.6-1.2-1-1.8-1.4c0.5-0.5,0.6-1.3,0-1.8c-1.4-1.1-2.9-1.6-4.7-1.4c-0.4,0.1-0.7,0.3-0.9,0.6
			c-0.7,0.2-9.4-7.5-9.8-7c-2.2-1-4.7-1.1-6.8,0.3c-1.2,0.8-2.1,2-2.6,3.3c-0.3,0.8-0.2,1.5-0.4,2.2c0,0.1,0,0.1,0.1,0.2
			c-0.1,0.3-0.3,0.5-0.3,0.8c0,0,0,0,0,0c0,0-0.1,0-0.1,0.1c-0.7,0.4-1.4,0.6-2.2,0.6c0,0,0,0-0.1,0c-2.9-0.9-5,0.9-6,3.3
			c0,0-0.1,0-0.1,0c-0.2,0-0.3,0-0.5,0c-0.4,0-0.7,0.1-1,0.3c-0.2,0.1-0.4,0.2-0.5,0.4c-1.3,1.2-1.7,3.5-1.5,5.1
			C112,93.8,113.3,93.3,115.1,93.9z"/>
		<path class="st6" d="M107.6,102.7c-0.1-0.1-0.1-0.3-0.2-0.4c-0.7-2-0.3-5.8,2.4-5.5c0,0,0.1,0,0.1,0c0.1-0.2,0.1-0.4,0.2-0.6
			c-2.3-0.1-4.6,1.4-5,4.3c-0.1,0.4,0.1,1,0.4,1.2c-0.1,0.6-0.2,1.1-0.2,1.7c0.6-0.1,1.2-0.2,1.8-0.1
			C107.2,103.1,107.4,102.9,107.6,102.7z"/>
		<path class="st5" d="M110.5,122.7c-0.3-0.4-0.3-1,0.2-1.5c1-0.9,1.6-2.1,2.6-3c0.1,0,0.1-0.1,0.2-0.1c0,0,0-0.1,0-0.1
			c-0.1-0.5-0.3-0.9-0.1-1.4c0.4-1.2,1.7-1.5,2.8-1.2c0.2,0.1,0.4,0.1,0.5,0.2c0.2-0.4,0.4-0.7,0.7-1.1c0-0.4,0-0.8,0.2-1.2
			c0.3-0.5,0.7-1,1.2-1.2c0.8-1.2,1.5-2.4,2.4-3.5c0.5-0.6,1-1.2,1.7-1.7c0-0.1-0.1-0.1-0.1-0.2c-0.6-1.2,1-2.6,2-1.5
			c0.2,0.2,0.4,0.5,0.6,0.7c1.1-0.2,2.3,0.1,3.4,1.2c0.4,0.4,0.4,1,0.2,1.5c-0.2,0.6-0.3,1.1-0.2,1.7c0,0.1,0.1,0.1,0.1,0.2
			c0,0,0.1,0,0.1,0c1.3,0.7,1.9,1.7,2.2,3c0.6,0.5,1.1,0.9,1.6,1.2c0.2,0.1,0.4,0.3,0.5,0.4c0.3-0.5,0.6-1,1.1-1.4
			c0.5-0.4,1-0.7,1.6-0.8c0.1-0.1,0.2-0.1,0.2-0.2c0.4-1.7,1.6-3,3.1-3.5c0.1-0.2,0.2-0.4,0.3-0.7c0.6-1.3,1.3-2.8,2.7-3.4
			c0.6-0.3,1.3-0.4,1.9-0.3c0-0.1,0-0.2,0.1-0.4c0.4-1.3,1.5-1.8,2.6-1.9c-0.4-0.3-0.9-0.5-1.3-0.6c0,0,0-0.1-0.1-0.1
			c-0.2-1-1-1.9-2-2.6c0.1-0.1,0.1-0.2,0.2-0.3c0.3-0.5,0.2-1.1-0.3-1.6c-0.6-0.5-1.2-1-1.9-1.3c0.4-0.4,0.4-1.2-0.2-1.7
			c-1.5-1-2.9-1.5-4.6-1.3c-0.4,0-0.7,0.3-0.8,0.5c-0.6,0.2-9.9-6.9-10.1-6.4c-2.2-1-4.5-1-6.3,0.2c-1,0.7-1.7,1.8-1.9,3
			c-0.1,0.7,0,1.4,0,2c0,0.1,0.1,0.1,0.1,0.1c-0.1,0.2-0.2,0.5-0.2,0.8c0,0,0,0,0,0c0,0-0.1,0-0.1,0.1c-0.6,0.4-1.3,0.5-2,0.5
			c0,0,0,0,0,0c-1.8-0.5-3.1-0.1-4,0.9c-0.4,0.4-0.7,0.9-1,1.5c-0.1,0.2-0.2,0.4-0.2,0.6c0,0-0.1,0-0.1,0c-2.7-0.3-3.1,3.5-2.4,5.5
			c0.1,0.2,0.1,0.3,0.2,0.4c-0.2,0.2-0.4,0.4-0.5,0.7c-0.6-0.1-1.2-0.1-1.8,0.1c-1.6,0.4-2.8,1.6-2.8,3.7c0,0.4,0.2,0.9,0.6,1.1
			c-0.1,1,0,2,0.4,2.9c-0.1,0-0.3-0.1-0.4-0.1c-0.3-0.1-0.7-0.1-0.9,0.1c-1.3-0.6,5.9,6.3,4.9,7.3c-0.9,0.9-0.6,1.9,0.3,3
			c0,0.2,0.1,0.3,0.2,0.5c0.6,0.8,1.2,1.4,2,1.8c0.1-0.1,0.2-0.2,0.3-0.3C110.1,123.2,110.3,122.9,110.5,122.7z"/>
		<path class="st5" d="M150.6,146.4c0.1,0,0.2,0.1,0.3,0.1c-0.1,0-0.1-0.1-0.2-0.1C150.7,146.4,150.7,146.4,150.6,146.4z"/>
		<path class="st6" d="M170.9,137.1c-0.1,1.5-1,2.5-2,3c-5.5,7.7-17.6,9.3-23.9,1.3c-1.1-0.9-2-1.9-2.8-3.2c-0.1,0-0.1,0-0.2,0
			c-2.8,0-5.1-1.7-6.3-3.9c-0.5-0.1-0.9-0.3-1.2-0.6c-0.5,0.1-1.1,0-1.6-0.4c-0.7-0.4-1.1-1-1.2-1.6c-0.8-0.2-1.6-0.9-1.9-1.6
			c-0.1-0.3-0.2-0.6-0.3-0.9c-1.1-0.6-0.8-2.3,0.2-2.9c0.3-0.2,0.4-2.4,0.7-2.9c0.1-0.1,0.1-0.2,0.2-0.4c-0.6-0.9-0.9-1.8-1-2.7
			c0-1.3,0.6-2.5,2.4-3.5c0.2-0.1,0.5-0.2,0.7-0.3c0.1-0.5,0.3-1,0.5-1.5c-0.2-0.1-0.4-0.3-0.5-0.4c-0.5-0.3-1-0.7-1.6-1.2
			c-0.2-1.3-0.9-2.3-2.2-3c0,0-0.1,0-0.1,0c0-0.1-0.1-0.1-0.1-0.2c-0.1-0.5-0.1-1.1,0.2-1.7c0.2-0.5,0.2-1.1-0.2-1.5
			c-1-1-2.2-1.3-3.4-1.2c-0.2-0.2-0.4-0.5-0.6-0.7c-0.9-1.1-2.6,0.3-2,1.5c0,0.1,0.1,0.1,0.1,0.2c-0.6,0.5-1.2,1-1.7,1.7
			c-0.8,1.1-1.6,2.3-2.4,3.5c-0.5,0.2-0.9,0.6-1.2,1.2c-0.2,0.4-0.2,0.8-0.2,1.2c-0.2,0.4-0.4,0.7-0.7,1.1c-0.1-0.1-0.3-0.1-0.5-0.2
			c-1.1-0.3-2.4,0-2.8,1.2c-0.2,0.5,0,0.9,0.1,1.4c0,0,0,0.1,0,0.1c-0.1,0-0.1,0.1-0.2,0.1c-1.1,0.8-1.6,2.1-2.6,3
			c-0.5,0.4-0.5,1-0.2,1.5c-0.2,0.2-0.4,0.5-0.5,0.8c-0.1,0.1-0.2,0.2-0.3,0.3c-0.5,0.6-0.8,1.4-0.9,2.2c-0.3,2.3,1.2,4.6,3,6
			c4.6,3.8,11.3,2.8,16,6.6c2.2,1.8,4,3.9,6.4,5.5c2.3,1.4,4.8,2.4,7.5,2.9c2.4,0.4,4.8,0.4,7.2,0c0.5-0.1,1.2-0.3,1.9-0.5
			c0,0,0.1,0,0.1,0c0,0,0.1,0.1,0.2,0.1c0.9,0.7,1.9,1.1,3.2,1.4c0.6,0.2,1.2,0.3,1.7,0.5c0.8,0.5,1.6,1,2.4,1.4
			c0.6,1.1,1.6,1.7,2.9,2.3c1.1,0.5,1.9,1,2.5,1.7c0.3,0.5,0.6,0.9,1,1.3c-0.2,0.3-0.2,0.7,0,1.1c0.9,1.9,0.3,0.4,1.9,1.6
			c-0.2,0.4-0.3,0.8-0.2,1.3c-0.3,0.4-0.3,1,0.1,1.5c1,1.3,2.8,1.2,4.3,0.9c1.8-0.3,3.6-0.9,5.2-1.7c1.2,0,2.3-0.3,3-1.3
			c0.2-0.2,0.3-0.4,0.4-0.7c0.1-0.2,0.1-0.3,0.2-0.5c0.6-0.3,1-1,0.6-1.7c0,0-0.1-0.1-0.1-0.1c1.1-0.5,1-2.5-0.4-2.4
			c-0.3,0-0.6,0-0.8,0.1c-2.6-4.8-3.6-6.1-6.4-10.8c1.2-1.9,0.7-4.1-0.9-5.3c-0.2-0.1-0.3-0.2-0.5-0.3
			C170.9,137,170.9,137,170.9,137.1z"/>
		
			<linearGradient id="SVGID_1_" gradientUnits="userSpaceOnUse" x1="333.5704" y1="5.4226" x2="320.3441" y2="34.6594" gradientTransform="matrix(0.9408 -0.339 0.339 0.9408 -164.1504 222.5189)">
			<stop  offset="1.612900e-02" style="stop-color:#A4CE52"/>
			<stop  offset="1" style="stop-color:#94B81C"/>
		</linearGradient>
		<path class="st7" d="M166.6,108.4c0-0.1-0.1-0.3-0.1-0.4c-0.4-0.9-1-1.6-1.8-2.1c0,0,0-0.1,0-0.1c0.8-1.6,1.1-3.5-0.4-4.9
			c-0.5-0.5-1.2-0.8-1.9-0.8c-0.6-1.1-1.6-2.1-2.5-2.7c-0.2-1-0.7-1.9-1.6-2.5c-0.1-0.1-0.2-0.1-0.2-0.1c-0.5-0.9-0.9-1.9-1.2-3
			c-0.3-1.1-1.4-1.5-2.4-1.1c-1.1,0.5-2.1,1.2-3,2c-0.2,0.2-0.5,0.5-0.7,0.7c-0.5,0.1-0.9,0.2-1.4,0.4c-1.1,0.5-2.2,1.6-2.3,2.9
			c0,0.5,0.1,1,0.3,1.5c-0.5,1.1-0.5,2.3,0,3.3c-0.2,0.2-0.3,0.4-0.4,0.6c-0.1,0.1-0.1,0.3-0.1,0.4c0,0-0.1,0-0.1,0
			c-1.1,0.1-2.2,0.6-2.6,1.9c0,0.1-0.1,0.2-0.1,0.4c-0.6-0.1-1.2,0-1.9,0.3c-1.4,0.7-2.1,2.1-2.7,3.4c-0.1,0.2-0.2,0.5-0.3,0.7
			c-1.5,0.6-2.8,1.8-3.1,3.5c-0.1,0.1-0.2,0.1-0.2,0.2c-0.6,0.2-1.1,0.4-1.6,0.8c-0.5,0.4-0.8,0.8-1.1,1.4c-0.3,0.5-0.4,0.9-0.5,1.5
			c-0.2,0.1-0.5,0.2-0.7,0.3c-1.8,1-2.4,2.2-2.4,3.5c0,0.9,0.4,1.8,1,2.7c-0.1,0.1-0.1,0.2-0.2,0.4c-0.2,0.5-0.3,2.7-0.7,2.9
			c-1,0.6-1.2,2.2-0.2,2.9c0.1,0.3,0.1,0.6,0.3,0.9c0.4,0.8,1.1,1.4,1.9,1.6c0.1,0.6,0.5,1.2,1.2,1.6c0.5,0.3,1.1,0.4,1.6,0.4
			c0.3,0.3,0.7,0.6,1.2,0.6c1.2,2.3,3.5,3.9,6.3,3.9c0.1,0,0.1,0,0.2,0c0.8,1.2,1.7,2.3,2.8,3.2c6.3,8,18.4,6.3,23.9-1.3
			c1-0.4,1.9-1.5,2-3c0,0,0-0.1,0-0.1c0-0.1,0-0.1,0-0.2c0-0.2,0-0.4,0-0.6c0-0.1,0.1-0.2,0.1-0.3c0.5-0.6,0.6-1.4,0.5-2.1
			c0.1-0.3,0.1-0.6,0.1-0.9c0.3-3.1-0.2-6.2-1.5-9c-0.7-1.4-1.2-2.4-1.5-3.6c0.1-0.4,0.3-0.9,0.4-1.4c0.1-0.2,0.2-0.5,0.2-0.8
			c0.3-1,0.6-2.1,0.6-3.1c0.1-1.3-0.5-2.3-1.2-3.2c-0.2-0.3-0.5-0.6-0.8-0.8c-0.2-0.2-0.4-0.3-0.6-0.3c0.1-0.1,0.2-0.2,0.2-0.3
			c0.3-0.5,0.3-1.1,0-1.6C167.3,108.6,167,108.4,166.6,108.4z"/>
	</g>
	<path class="st2" d="M226.8,83.3L226.8,83.3c-5.1-4-12.4-3.5-16.8,1.1l-9.7,10.9c-1.4,0.5-2.9,1.1-4.6,1.9c0,0-12.2-3.7-22.6,7.4
		c-10.4,11.2-7,14.7-19.8,16.3c-12.8,1.6-7,14.9,15.5,4.1c16.6-7.9,16.5-2.6,14.3,3c-4,10.3-9.9,19.6-9.9,19.6s-15.5,1.9-24.5,1.9
		c-5.1,0-23.2-2.3-23,1.1c0.4,6.4,23.9,7.4,23.9,7.4l23.9,0.2c1.6,0,3.1-0.4,4.4-1.2c5.7-3.5,21.3-13.6,23.9-18.2
		c1.9-3.2,7.5-11.1,11.3-18.2l15.3-19.4C233.2,96.1,232.5,87.8,226.8,83.3z"/>
	<g>
		<path class="st8" d="M114.2,67.2c4.2-1,7.9-0.1,8.5,2.1c0,0.1,0.1,0.3,0.1,0.4l0.1,0c-2-15.9-15.6-28.2-32-28.2
			c-17.8,0-32.3,14.5-32.3,32.3v109.4h15.3v-7.6l23.1-34.1l-9.8-6.6l-13.4,19.7V73.7c0-9.4,7.6-17,17-17c8.7,0,15.9,6.6,16.9,15
			C108.3,69.9,110.8,68,114.2,67.2z"/>
		<path class="st8" d="M107.8,73.7l0.1,0c-0.1-0.1-0.1-0.2-0.1-0.2C107.8,73.5,107.8,73.6,107.8,73.7z"/>
		
			<rect x="90.7" y="123.5" transform="matrix(0.5645 -0.8254 0.8254 0.5645 -70.5802 136.6869)" class="st8" width="7" height="23.4"/>
		<path class="st9" d="M122.7,69.3c-0.5-2.2-4.3-3.1-8.5-2.1c-3.4,0.8-5.9,2.7-6.5,4.5c-0.1,0.4-0.2,0.8-0.1,1.3
			c0,0.2,0.1,0.3,0.2,0.4c0,0.1,0.1,0.2,0.1,0.2c1.1,1.7,4.5,2.3,8.2,1.4c3.9-1,6.7-3.3,6.6-5.4C122.7,69.5,122.7,69.4,122.7,69.3z"
			/>
	</g>
	<path class="st10" d="M154.7,162.3c0.6,1.1,15.2,16.5,8.4,24.2C156.4,194.3,154.7,162.3,154.7,162.3z"/>
	<path class="st10" d="M147.3,82.3c1.1,0.5,22.2,3.2,21.8,13.5C168.8,106.1,147.3,82.3,147.3,82.3z"/>
	<path class="st10" d="M106.5,161.4c-0.5,1.2-2.7,22.3-13,22.1C83.2,183.4,106.5,161.4,106.5,161.4z"/>
	<path class="st11" d="M147.8,161.7c-3.1-8.4-7-8.3-8-18.9c-1-10.6-2.9-15.8-2.9-23.5s-0.7-9.1-7.7-22.5S124,70.9,124,70.9
		c0.5-0.5-5.3-2.5-9.3-0.7c-3.8,1.6-6.4,4.9-6.4,4.9c0,3.5,8.3,57.8,5.9,81.5c-0.7,6.8-1.8,16.7-2.9,26.5h41.5
		C152.5,180.3,152.2,173.8,147.8,161.7z"/>
	<path class="st1" d="M135.2,192.7c-1.2,0.1-0.6,9.3-0.5,16.3h3.5C137.6,202,136.8,192.6,135.2,192.7z"/>
	<path class="st11" d="M152.7,183.1h-41.5c-1.1,9.8-2.3,19.6-3,26h26.6c-0.1-7.1-0.8-16.2,0.5-16.3c1.5-0.1,2.4,9.3,3,16.3h21.6
		c-2.2-7-6.5-20.8-7.1-25.1C152.7,183.7,152.7,183.4,152.7,183.1z"/>
</g>
</svg>
